<?xml version="1.0" standalone="no"?>
<!DOCTYPE svg PUBLIC "-//W3C//DTD SVG 20010904//EN"
 "http://www.w3.org/TR/2001/REC-SVG-20010904/DTD/svg10.dtd">
<svg version="1.0" xmlns="http://www.w3.org/2000/svg"
 width="260.000000pt" height="260.000000pt" viewBox="0 0 260.000000 260.000000"
 preserveAspectRatio="xMidYMid meet">
<metadata>
Created by potrace 1.14, written by Peter Selinger 2001-2017
</metadata>
<g transform="translate(0.000000,260.000000) scale(0.100000,-0.100000)"
fill="#000000" stroke="none">
<path d="M0 1300 l0 -1300 1300 0 1300 0 0 1300 0 1300 -1300 0 -1300 0 0
-1300z m965 583 c137 -44 244 -165 245 -276 l0 -38 -112 3 c-108 3 -113 4
-116 25 -5 32 -74 90 -124 104 -91 24 -202 -10 -234 -73 -20 -38 -12 -87 20
-117 25 -24 101 -54 162 -65 257 -45 382 -119 418 -245 21 -75 20 -120 -4
-201 -45 -151 -178 -234 -396 -247 -212 -12 -374 61 -443 199 -19 36 -31 77
-31 100 l0 38 113 0 112 -1 20 -42 c72 -146 395 -119 395 33 0 77 -49 107
-245 150 -126 28 -199 54 -250 88 -145 100 -169 317 -50 450 66 73 159 120
270 136 53 7 199 -5 250 -21z m1243 -83 l3 -75 -197 -265 c-108 -146 -228
-308 -266 -360 -39 -52 -72 -100 -75 -107 -4 -10 50 -13 271 -13 l276 0 0
-100 0 -100 -425 0 -425 0 0 81 0 81 270 364 c149 200 270 366 270 369 0 3
-119 5 -265 5 l-265 0 0 100 0 100 413 -2 412 -3 3 -75z"/>
</g>
</svg>
